{"title":"Castle S05E03 720p WEB-DL DD5.1 H.264-NFHD","uid":7713305,"size":1439627842,"categoryP":"video","categoryS":"hd___tv_shows","magnet":"?xt=urn:btih:4a1e7b6dcc9f3645e8fdf9510f6933eae9ca6016&amp;dn=Castle+S05E03+720p+WEB-DL+DD5.1+H.264-NFHD&amp;tr=udp%3A%2F%2Ftracker.openbittorrent.com%3A80&amp;tr=udp%3A%2F%2Fopen.demonii.com%3A1337&amp;tr=udp%3A%2F%2Ftracker.coppersurfer.tk%3A6969&amp;tr=udp%3A%2F%2Fexodus.desync.com%3A6969","seeders":2,"leechers":0,"uploader":"sceneline","files":4,"time":1349864791,"description":"- &lt;a href=&quot;\nhttp://www.Speed.Cd&quot; rel=&quot;nofollow&quot; target=&quot;_NEW&quot;&gt;\nhttp://www.Speed.Cd&lt;/a&gt;\n &lt;a href=&quot;\nhttp://www.Speed.Cd&quot; rel=&quot;nofollow&quot; target=&quot;_NEW&quot;&gt;\nhttp://www.Speed.Cd&lt;/a&gt;       the fast  and The Hottest Private Tracker on the net\n\nPlease Seed back to make the speed Faster!!\n ............ NFO .............\n-General\nUnique ID                        : 175757898502255449381855568889158933929 (0x8439BD6E98808727AA8161238CA59DA9)\nComplete name                    : Castle S05E03 720p WEB-DL DD5.1 H.264-NFHDCastle S05E03 720p WEB-DL DD5.1 H.264-NFHD.mkv\nFormat                           : Matroska\nFormat version                   : Version 2\nFile size                        : 1.34 GiB\nDuration                         : 43mn 13s\nOverall bit rate                 : 4 440 Kbps\nEncoded date                     : UTC 2012-10-09 17:32:38\nWriting application              : mkvmerge v5.8.0 ('No Sleep / Pillow') built on Sep  2 2012 15:37:04\nWriting library                  : libebml v1.2.3 + libmatroska v1.3.0\n\nVideo\nID                               : 1\nFormat                           : AVC\nFormat/Info                      : Advanced Video Codec\nFormat profile                   : &lt;a class=&quot;__cf_email__&quot; href=&quot;/cdn-cgi/l/email-protection&quot; data-cfemail=&quot;a0e8c9c7c8e0ec938e91&quot;&gt;[email&amp;#160;protected]&lt;/a&gt;&lt;script cf-hash='f9e31' type=&quot;text/javascript&quot;&gt;\n/* &lt;![CDATA[ */!function(){try{var t=&quot;currentScript&quot;in document?document.currentScript:function(){for(var t=document.getElementsByTagName(&quot;script&quot;),e=t.length;e--;)if(t[e].getAttribute(&quot;cf-hash&quot;))return t[e]}();if(t&amp;&amp;t.previousSibling){var e,r,n,i,c=t.previousSibling,a=c.getAttribute(&quot;data-cfemail&quot;);if(a){for(e=&quot;&quot;,r=parseInt(a.substr(0,2),16),n=2;a.length-n;n+=2)i=parseInt(a.substr(n,2),16)^r,e+=String.fromCharCode(i);e=document.createTextNode(e),c.parentNode.replaceChild(e,c)}}}catch(u){}}();/* ]]&gt; */&lt;/script&gt;\nFormat settings, CABAC           : No\nFormat settings, ReFrames        : 2 frames\nCodec ID                         : V_MPEG4/ISO/AVC\nDuration                         : 43mn 13s\nBit rate                         : 3 968 Kbps\nWidth                            : 1 280 pixels\nHeight                           : 720 pixels\nDisplay aspect ratio             : 16:9\nFrame rate                       : 23.976 fps\nColor space                      : YUV\nChroma subsampling               : 4:2:0\nBit depth                        : 8 bits\nScan type                        : Progressive\nBits/(Pixel*Frame)               : 0.180\nStream size                      : 1.20 GiB (89%)\nTitle                            : Castle - Season 5, Episode 3: Secret's Safe With Me\nLanguage                         : English\nColor primaries                  : BT.709-5, BT.1361, IEC 61966-2-4, SMPTE RP177\nTransfer characteristics         : BT.709-5, BT.1361\nMatrix coefficients              : BT.709-5, BT.1361, IEC 61966-2-4 709, SMPTE RP177\n\nAudio\nID                               : 2\nFormat                           : AC-3\nFormat/Info                      : Audio Coding 3\nMode extension                   : CM (complete main)\nCodec ID                         : A_AC3\nDuration                         : 43mn 13s\nBit rate mode                    : Constant\nBit rate                         : 384 Kbps\nChannel(s)                       : 6 channels\nChannel positions                : Front: L C R, Side: L R, LFE\nSampling rate                    : 48.0 KHz\nBit depth                        : 16 bits\nCompression mode                 : Lossy\nStream size                      : 119 MiB (9%)\nTitle                            : Dolby Digital 5.1 @ 384 kbps\nLanguage                         : English","torrent":{"xt":"urn:btih:4a1e7b6dcc9f3645e8fdf9510f6933eae9ca6016","amp;dn":"Castle+S05E03+720p+WEB-DL+DD5.1+H.264-NFHD","amp;tr":["udp%3A%2F%2Ftracker.openbittorrent.com%3A80","udp%3A%2F%2Fopen.demonii.com%3A1337","udp%3A%2F%2Ftracker.coppersurfer.tk%3A6969","udp%3A%2F%2Fexodus.desync.com%3A6969"],"infoHash":"4a1e7b6dcc9f3645e8fdf9510f6933eae9ca6016","infoHashBuffer":{"type":"Buffer","data":[74,30,123,109,204,159,54,69,232,253,249,81,15,105,51,234,233,202,96,22]},"announce":[],"urlList":[]}}